
      <svg data-logo="logo" xmlns="http://www.w3.org/2000/svg" viewBox="0 0 207 43">
        <g id="logogram" transform="translate(0, 1) rotate(0) "><path d="M12.2501 38.5041L8.20328 31.4947L14.1422 21.2365L17.9161 27.7736L40.1946 27.7616L33.8729 38.6009L12.2501 38.5041Z" fill="#E86C4A"/><path d="M44.1727 20.8016L40.1259 27.8108L28.2725 27.7968L32.0468 21.2598L20.8972 1.97211L33.4451 2.02716L44.1727 20.8016Z" fill="#86A7C8"/><path d="M12.8737 1.93472H20.9674L26.8819 12.2073L19.3334 12.2069L8.2047 31.5066L1.97841 20.6124L12.8737 1.93472Z" fill="#7FB891"/><path fill-rule="evenodd" clip-rule="evenodd" d="M21.9542 0.311858L21.93 0.269989H11.9176L0.0561523 20.604L8.19841 34.8506L8.2084 34.8333L11.2865 40.1647L34.8269 40.27L43.0937 26.0952H43.0387L46.0926 20.8058L34.4136 0.366518L21.9542 0.311858ZM29.6993 13.8721H29.7618L23.8761 3.65005L32.4765 3.68776L42.2528 20.7972L39.1928 26.0974L31.1736 26.1017L33.9696 21.2592L29.6993 13.8721ZM19.9152 3.59966L23.9284 10.5423L18.3719 10.5421L8.85894 27.0394L8.21004 28.1604L3.90107 20.6209L13.8301 3.59966H19.9152ZM16.0567 21.2226L20.2953 13.8719L25.8534 13.8721L30.1241 21.2602L27.3276 26.1038L18.8773 26.1084L16.0567 21.2226ZM10.1296 31.5014L11.7422 28.705L14.1402 24.5628L16.9553 29.4391L25.4043 29.4345L25.3906 29.4581L37.2697 29.4722L32.9192 36.9318L13.2138 36.8436L10.1296 31.5014Z" fill="#333237"/></g>
        <g id="logotype" transform="translate(53, 8.5)"><path fill="#111111" d="M12.60 26L6.84 26L15.54 0.54L22.37 0.54L31.29 26L25.50 26L21.42 13.71Q20.68 11.34 19.92 8.51Q19.16 5.68 18.32 2.33L18.32 2.33L19.47 2.33Q18.65 5.70 17.94 8.54Q17.23 11.39 16.53 13.71L16.53 13.71L12.60 26ZM25.86 20.09L12.27 20.09L12.27 16.00L25.86 16.00L25.86 20.09ZM38.62 26.24L38.62 26.24Q36.64 26.24 35.15 25.38Q33.67 24.51 32.85 22.90Q32.04 21.28 32.04 19.04L32.04 19.04L32.04 6.89L37.17 6.89L37.17 18.16Q37.17 19.93 38.09 20.94Q39.02 21.95 40.62 21.95L40.62 21.95Q41.72 21.95 42.55 21.48Q43.39 21.01 43.86 20.11Q44.33 19.22 44.33 17.95L44.33 17.95L44.33 6.89L49.47 6.89L49.47 26L44.62 26L44.55 21.23L44.84 21.23Q44.09 23.64 42.54 24.94Q41.00 26.24 38.62 26.24ZM49.71 6.89L61.04 6.89L61.04 10.81L49.71 10.81L49.71 6.89ZM52.34 20.86L52.34 2.35L57.47 2.35L57.47 20.41Q57.47 21.32 57.87 21.75Q58.27 22.19 59.21 22.19L59.21 22.19Q59.50 22.19 60.03 22.11Q60.56 22.04 60.84 21.97L60.84 21.97L61.57 25.81Q60.72 26.07 59.87 26.17Q59.03 26.27 58.26 26.27L58.26 26.27Q55.39 26.27 53.86 24.87Q52.34 23.47 52.34 20.86L52.34 20.86ZM70.64 26.38L70.64 26.38Q67.77 26.38 65.67 25.14Q63.57 23.90 62.43 21.68Q61.30 19.47 61.30 16.53L61.30 16.53Q61.30 13.56 62.43 11.35Q63.57 9.13 65.67 7.89Q67.77 6.65 70.64 6.65L70.64 6.65Q73.53 6.65 75.63 7.89Q77.72 9.13 78.86 11.35Q79.99 13.56 79.99 16.53L79.99 16.53Q79.99 19.47 78.86 21.68Q77.72 23.90 75.63 25.14Q73.53 26.38 70.64 26.38ZM70.64 22.34L70.64 22.34Q72.01 22.34 72.93 21.58Q73.86 20.82 74.32 19.50Q74.78 18.17 74.78 16.52L74.78 16.52Q74.78 14.82 74.32 13.51Q73.86 12.19 72.93 11.44Q72.01 10.69 70.64 10.69L70.64 10.69Q69.28 10.69 68.36 11.44Q67.45 12.19 66.99 13.51Q66.53 14.82 66.53 16.52L66.53 16.52Q66.53 18.17 66.99 19.50Q67.45 20.82 68.36 21.58Q69.28 22.34 70.64 22.34ZM86.62 26L81.41 26L81.41 0.54L98.16 0.54L98.16 4.86L86.62 4.86L86.62 11.97L97.03 11.97L97.03 16.22L86.62 16.22L86.62 26ZM99.56 0.54L104.68 0.54L104.68 26L99.56 26L99.56 0.54ZM115.31 26.38L115.31 26.38Q112.44 26.38 110.34 25.14Q108.24 23.90 107.10 21.68Q105.96 19.47 105.96 16.53L105.96 16.53Q105.96 13.56 107.10 11.35Q108.24 9.13 110.34 7.89Q112.44 6.65 115.31 6.65L115.31 6.65Q118.20 6.65 120.29 7.89Q122.39 9.13 123.52 11.35Q124.66 13.56 124.66 16.53L124.66 16.53Q124.66 19.47 123.52 21.68Q122.39 23.90 120.29 25.14Q118.20 26.38 115.31 26.38ZM115.31 22.34L115.31 22.34Q116.68 22.34 117.60 21.58Q118.52 20.82 118.99 19.50Q119.45 18.17 119.45 16.52L119.45 16.52Q119.45 14.82 118.99 13.51Q118.52 12.19 117.60 11.44Q116.68 10.69 115.31 10.69L115.31 10.69Q113.94 10.69 113.03 11.44Q112.12 12.19 111.65 13.51Q111.19 14.82 111.19 16.52L111.19 16.52Q111.19 18.17 111.65 19.50Q112.12 20.82 113.03 21.58Q113.94 22.34 115.31 22.34ZM135.15 26L129.94 26L124.30 6.89L129.68 6.89L131.34 13.95Q131.77 15.85 132.26 18.08Q132.76 20.31 133.17 23.01L133.17 23.01L132.59 23.01Q133.03 20.38 133.56 18.13Q134.09 15.88 134.55 13.95L134.55 13.95L136.30 6.89L141.01 6.89L142.72 13.95Q143.15 15.88 143.68 18.11Q144.21 20.34 144.67 23.01L144.67 23.01L144.09 23.01Q144.50 20.36 144.97 18.13Q145.44 15.90 145.88 13.95L145.88 13.95L147.54 6.89L152.99 6.89L147.32 26L142.11 26L139.99 18.63Q139.68 17.52 139.37 16.18Q139.06 14.84 138.77 13.45Q138.48 12.05 138.18 10.84L138.18 10.84L139.08 10.84Q138.79 12.05 138.49 13.45Q138.19 14.84 137.89 16.19Q137.58 17.54 137.27 18.63L137.27 18.63L135.15 26Z"/></g>
        
      </svg>
    